<?xml version="1.0" encoding="UTF-8"?>
<svg id="Capa_1" data-name="Capa 1" xmlns="http://www.w3.org/2000/svg" viewBox="0 0 699.74 552.66">
  <defs>
    <style>
      .cls-1 {
        fill: #fff;
        stroke-width: 0px;
      }
    </style>
  </defs>
  <polygon class="cls-1" points="113.56 466.92 0 552.66 0 0 101.33 0 101.33 149.38 116.62 141.96 116.62 0 190.44 0 221.01 38.44 221.01 186.07 170.35 216.65 221.01 243.73 221.01 358.16 230.93 378 115.47 467.19 115.47 289.93 102.76 283.43 102.76 447.83 113.56 466.92"/>
  <polygon class="cls-1" points="265.79 0 429.34 0 463.12 41.69 463.12 170.58 429.34 188.36 463.12 207.91 463.12 355.91 353.34 427.02 353.34 262.14 340.45 255.02 340.45 430.14 235.56 354.58 235.56 39.91 265.79 0"/>
  <polygon class="cls-1" points="569.38 442.31 464.29 359.95 477.43 349.59 477.43 40.88 499.15 0 574.43 0 591.36 55.28 591.36 0 699.74 0 699.74 545.13 583.53 453.67 592.12 438.77 592.12 413.25 578.73 369.8 578.73 410.73 569.38 442.31"/>
</svg>